<mxfile host="app.diagrams.net" modified="2020-12-01T01:44:01.567Z" agent="5.0 (Windows NT 10.0; Win64; x64) AppleWebKit/537.36 (KHTML, like Gecko) Chrome/86.0.4240.198 Safari/537.36" etag="5KjqgGHTkX-rJn-F6nOb" version="13.10.4" type="github">
  <diagram id="h1go9skNZxWVvWuTAxgh" name="Page-1">
    <mxGraphModel dx="2522" dy="450" grid="1" gridSize="10" guides="1" tooltips="1" connect="1" arrows="1" fold="1" page="1" pageScale="1" pageWidth="827" pageHeight="1169" background="#F1FAEE" math="0" shadow="0">
      <root>
        <mxCell id="0" />
        <mxCell id="1" parent="0" />
        <mxCell id="YrBBLmiHEUmSjlM092Gt-65" value="" style="shape=partialRectangle;whiteSpace=wrap;html=1;right=0;top=0;bottom=0;fillColor=none;routingCenterX=-0.5;rounded=1;dashed=1;fontFamily=Verdana;fontSize=16;strokeWidth=4;strokeColor=#808080;" parent="1" vertex="1">
          <mxGeometry x="-1400" y="40" width="1370" height="1000" as="geometry" />
        </mxCell>
        <mxCell id="0IOBR0UWIJ8B12urthg3-5" value="" style="html=1;shadow=0;dashed=0;align=center;verticalAlign=middle;shape=mxgraph.arrows2.arrow;dy=0.67;dx=20;notch=0;rounded=0;sketch=0;strokeColor=#457B9D;fillColor=#A8DADC;fontColor=#1D3557;" parent="1" vertex="1">
          <mxGeometry x="-1640" y="270" width="80" height="20" as="geometry" />
        </mxCell>
        <mxCell id="YrBBLmiHEUmSjlM092Gt-1" style="edgeStyle=orthogonalEdgeStyle;rounded=1;orthogonalLoop=1;jettySize=auto;html=1;exitX=1;exitY=0.5;exitDx=0;exitDy=0;entryX=0;entryY=0.5;entryDx=0;entryDy=0;strokeWidth=2;strokeColor=#457B9D;" parent="1" source="YrBBLmiHEUmSjlM092Gt-35" target="0IOBR0UWIJ8B12urthg3-19" edge="1">
          <mxGeometry relative="1" as="geometry" />
        </mxCell>
        <mxCell id="YrBBLmiHEUmSjlM092Gt-3" style="edgeStyle=orthogonalEdgeStyle;rounded=1;orthogonalLoop=1;jettySize=auto;html=1;exitX=1;exitY=0.25;exitDx=0;exitDy=0;entryX=0;entryY=0.5;entryDx=0;entryDy=0;strokeColor=#457B9D;strokeWidth=2;" parent="1" source="0IOBR0UWIJ8B12urthg3-6" target="0IOBR0UWIJ8B12urthg3-21" edge="1">
          <mxGeometry relative="1" as="geometry" />
        </mxCell>
        <mxCell id="YrBBLmiHEUmSjlM092Gt-4" style="edgeStyle=orthogonalEdgeStyle;rounded=1;orthogonalLoop=1;jettySize=auto;html=1;exitX=1;exitY=0.75;exitDx=0;exitDy=0;entryX=0;entryY=0.5;entryDx=0;entryDy=0;strokeColor=#457B9D;strokeWidth=2;" parent="1" source="0IOBR0UWIJ8B12urthg3-6" target="0IOBR0UWIJ8B12urthg3-22" edge="1">
          <mxGeometry relative="1" as="geometry" />
        </mxCell>
        <mxCell id="0IOBR0UWIJ8B12urthg3-6" value="&lt;h4&gt;&lt;font style=&quot;font-size: 18px&quot; face=&quot;Verdana&quot;&gt;数据接入&lt;/font&gt;&lt;/h4&gt;" style="rounded=1;whiteSpace=wrap;html=1;sketch=0;strokeColor=#457B9D;fillColor=#A8DADC;fontColor=#1D3557;" parent="1" vertex="1">
          <mxGeometry x="-1560" y="250" width="120" height="60" as="geometry" />
        </mxCell>
        <mxCell id="0IOBR0UWIJ8B12urthg3-7" value="" style="shape=curlyBracket;whiteSpace=wrap;html=1;rounded=1;sketch=0;strokeColor=#b46504;fillColor=#fad7ac;size=0.5;" parent="1" vertex="1">
          <mxGeometry x="-1550" y="120.5" width="20" height="90" as="geometry" />
        </mxCell>
        <mxCell id="0IOBR0UWIJ8B12urthg3-13" value="&lt;h4&gt;图片&lt;/h4&gt;" style="rounded=0;whiteSpace=wrap;html=1;sketch=0;strokeColor=#b46504;fillColor=#fad7ac;" parent="1" vertex="1">
          <mxGeometry x="-1530" y="104.5" width="90" height="30" as="geometry" />
        </mxCell>
        <mxCell id="0IOBR0UWIJ8B12urthg3-14" value="&lt;h4&gt;视频&lt;/h4&gt;" style="rounded=0;whiteSpace=wrap;html=1;sketch=0;strokeColor=#b46504;fillColor=#fad7ac;" parent="1" vertex="1">
          <mxGeometry x="-1530" y="150.5" width="90" height="30" as="geometry" />
        </mxCell>
        <mxCell id="0IOBR0UWIJ8B12urthg3-15" value="&lt;h4&gt;直播&lt;/h4&gt;" style="rounded=0;whiteSpace=wrap;html=1;sketch=0;strokeColor=#b46504;fillColor=#fad7ac;" parent="1" vertex="1">
          <mxGeometry x="-1530" y="197.5" width="90" height="30" as="geometry" />
        </mxCell>
        <mxCell id="0IOBR0UWIJ8B12urthg3-18" value="&lt;h3&gt;&lt;font style=&quot;font-size: 16px&quot;&gt;数据类型&lt;/font&gt;&lt;/h3&gt;" style="text;html=1;strokeColor=#b46504;fillColor=#fad7ac;align=center;verticalAlign=middle;whiteSpace=wrap;rounded=0;sketch=0;" parent="1" vertex="1">
          <mxGeometry x="-1625" y="155.5" width="70" height="20" as="geometry" />
        </mxCell>
        <mxCell id="YrBBLmiHEUmSjlM092Gt-8" style="edgeStyle=orthogonalEdgeStyle;rounded=1;orthogonalLoop=1;jettySize=auto;html=1;exitX=1;exitY=0.5;exitDx=0;exitDy=0;entryX=0;entryY=0.5;entryDx=0;entryDy=0;strokeColor=#457B9D;strokeWidth=2;" parent="1" source="YrBBLmiHEUmSjlM092Gt-38" target="JoDoQnj6M1mZgMJEA4F1-6" edge="1">
          <mxGeometry relative="1" as="geometry" />
        </mxCell>
        <mxCell id="0IOBR0UWIJ8B12urthg3-19" value="&lt;h3 style=&quot;font-size: 18px&quot;&gt;视频抽帧&lt;/h3&gt;" style="rounded=1;whiteSpace=wrap;html=1;sketch=0;strokeColor=#36393d;fillColor=#cdeb8b;" parent="1" vertex="1">
          <mxGeometry x="-1300" y="250" width="120" height="60" as="geometry" />
        </mxCell>
        <mxCell id="YrBBLmiHEUmSjlM092Gt-9" style="edgeStyle=orthogonalEdgeStyle;rounded=1;orthogonalLoop=1;jettySize=auto;html=1;exitX=1;exitY=0.5;exitDx=0;exitDy=0;entryX=0;entryY=0.25;entryDx=0;entryDy=0;strokeColor=#457B9D;strokeWidth=2;" parent="1" source="0IOBR0UWIJ8B12urthg3-21" target="JoDoQnj6M1mZgMJEA4F1-6" edge="1">
          <mxGeometry relative="1" as="geometry" />
        </mxCell>
        <mxCell id="0IOBR0UWIJ8B12urthg3-21" value="&lt;h3 style=&quot;font-size: 18px&quot;&gt;直播抽帧&lt;/h3&gt;" style="rounded=1;whiteSpace=wrap;html=1;sketch=0;strokeColor=#36393d;fillColor=#cdeb8b;" parent="1" vertex="1">
          <mxGeometry x="-1300" y="165" width="120" height="60" as="geometry" />
        </mxCell>
        <mxCell id="YrBBLmiHEUmSjlM092Gt-10" style="edgeStyle=orthogonalEdgeStyle;rounded=1;orthogonalLoop=1;jettySize=auto;html=1;exitX=1;exitY=0.5;exitDx=0;exitDy=0;entryX=0;entryY=0.75;entryDx=0;entryDy=0;strokeColor=#457B9D;strokeWidth=2;" parent="1" source="0IOBR0UWIJ8B12urthg3-22" target="JoDoQnj6M1mZgMJEA4F1-6" edge="1">
          <mxGeometry relative="1" as="geometry" />
        </mxCell>
        <mxCell id="0IOBR0UWIJ8B12urthg3-22" value="&lt;h3 style=&quot;font-size: 18px&quot;&gt;图片下载&lt;/h3&gt;" style="rounded=1;whiteSpace=wrap;html=1;sketch=0;strokeColor=#36393d;fillColor=#cdeb8b;" parent="1" vertex="1">
          <mxGeometry x="-1300" y="341" width="120" height="60" as="geometry" />
        </mxCell>
        <mxCell id="YrBBLmiHEUmSjlM092Gt-18" style="edgeStyle=orthogonalEdgeStyle;rounded=1;orthogonalLoop=1;jettySize=auto;html=1;exitX=1;exitY=0.5;exitDx=0;exitDy=0;entryX=0;entryY=0.5;entryDx=0;entryDy=0;strokeColor=#457B9D;strokeWidth=2;" parent="1" source="YrBBLmiHEUmSjlM092Gt-45" target="JoDoQnj6M1mZgMJEA4F1-36" edge="1">
          <mxGeometry relative="1" as="geometry" />
        </mxCell>
        <mxCell id="YrBBLmiHEUmSjlM092Gt-25" style="edgeStyle=orthogonalEdgeStyle;rounded=1;orthogonalLoop=1;jettySize=auto;html=1;exitX=0.5;exitY=1;exitDx=0;exitDy=0;entryX=0.5;entryY=0;entryDx=0;entryDy=0;strokeColor=#457B9D;strokeWidth=2;" parent="1" source="YrBBLmiHEUmSjlM092Gt-42" target="aP0xkrd6JBsTT6EtkUmq-35" edge="1">
          <mxGeometry relative="1" as="geometry" />
        </mxCell>
        <mxCell id="0IOBR0UWIJ8B12urthg3-27" value="&lt;h3 style=&quot;font-size: 18px&quot;&gt;数据分发&lt;/h3&gt;" style="rounded=1;whiteSpace=wrap;html=1;sketch=0;strokeColor=#36393d;fillColor=#ffff88;" parent="1" vertex="1">
          <mxGeometry x="-700" y="251" width="120" height="60" as="geometry" />
        </mxCell>
        <mxCell id="0IOBR0UWIJ8B12urthg3-47" value="处理引擎" style="swimlane;rounded=1;shadow=0;glass=0;dashed=1;sketch=0;strokeColor=#b85450;fillColor=#f8cecc;fontSize=18;fontFamily=Verdana;" parent="1" vertex="1">
          <mxGeometry x="-570" y="520" width="440" height="120" as="geometry">
            <mxRectangle x="-960" y="490" width="100" height="30" as="alternateBounds" />
          </mxGeometry>
        </mxCell>
        <mxCell id="0IOBR0UWIJ8B12urthg3-48" value="&lt;h3&gt;&lt;font style=&quot;font-size: 18px&quot;&gt;face&lt;/font&gt;&lt;/h3&gt;" style="rounded=1;whiteSpace=wrap;html=1;shadow=0;glass=0;sketch=0;fillColor=#fad9d5;fontFamily=Verdana;fontSize=18;strokeColor=#36393D;" parent="0IOBR0UWIJ8B12urthg3-47" vertex="1">
          <mxGeometry x="20" y="45" width="120" height="60" as="geometry" />
        </mxCell>
        <mxCell id="0IOBR0UWIJ8B12urthg3-49" value="&lt;h3&gt;&lt;font style=&quot;font-size: 18px&quot;&gt;porn&lt;/font&gt;&lt;/h3&gt;" style="rounded=1;whiteSpace=wrap;html=1;shadow=0;glass=0;sketch=0;fillColor=#fad9d5;fontFamily=Verdana;fontSize=18;strokeColor=#36393D;" parent="0IOBR0UWIJ8B12urthg3-47" vertex="1">
          <mxGeometry x="160" y="45" width="120" height="60" as="geometry" />
        </mxCell>
        <mxCell id="0IOBR0UWIJ8B12urthg3-50" value="&lt;h3&gt;ocr&lt;/h3&gt;" style="rounded=1;whiteSpace=wrap;html=1;shadow=0;glass=0;sketch=0;fillColor=#fad9d5;fontFamily=Verdana;fontSize=18;strokeColor=#36393D;" parent="0IOBR0UWIJ8B12urthg3-47" vertex="1">
          <mxGeometry x="300" y="45" width="120" height="60" as="geometry" />
        </mxCell>
        <mxCell id="YrBBLmiHEUmSjlM092Gt-63" style="edgeStyle=orthogonalEdgeStyle;rounded=1;orthogonalLoop=1;jettySize=auto;html=1;exitX=0.25;exitY=1;exitDx=0;exitDy=0;entryX=0.5;entryY=0;entryDx=0;entryDy=0;strokeColor=#457B9D;strokeWidth=2;fontFamily=Verdana;fontSize=16;" parent="1" source="aP0xkrd6JBsTT6EtkUmq-35" target="YrBBLmiHEUmSjlM092Gt-62" edge="1">
          <mxGeometry relative="1" as="geometry" />
        </mxCell>
        <mxCell id="aP0xkrd6JBsTT6EtkUmq-35" value="&lt;h3 style=&quot;font-size: 18px&quot;&gt;&lt;font face=&quot;Verdana&quot; style=&quot;font-size: 18px&quot;&gt;结果存储中心&lt;/font&gt;&lt;/h3&gt;&lt;h3 style=&quot;font-size: 18px&quot;&gt;&lt;font face=&quot;Verdana&quot; style=&quot;font-size: 18px&quot;&gt;(Redis)&lt;/font&gt;&lt;/h3&gt;" style="rounded=0;whiteSpace=wrap;html=1;strokeColor=#6c8ebf;strokeWidth=1;fillColor=#dae8fc;" parent="1" vertex="1">
          <mxGeometry x="-1100" y="490" width="360" height="180" as="geometry" />
        </mxCell>
        <mxCell id="YrBBLmiHEUmSjlM092Gt-29" style="edgeStyle=orthogonalEdgeStyle;rounded=1;orthogonalLoop=1;jettySize=auto;html=1;exitX=0.5;exitY=0;exitDx=0;exitDy=0;entryX=0.75;entryY=1;entryDx=0;entryDy=0;strokeColor=#457B9D;strokeWidth=2;" parent="1" source="YrBBLmiHEUmSjlM092Gt-57" target="aP0xkrd6JBsTT6EtkUmq-35" edge="1">
          <mxGeometry relative="1" as="geometry" />
        </mxCell>
        <mxCell id="aP0xkrd6JBsTT6EtkUmq-43" value="&lt;h3 style=&quot;font-size: 18px&quot;&gt;&lt;font face=&quot;Verdana&quot;&gt;结果同步&lt;/font&gt;&lt;/h3&gt;" style="rounded=1;whiteSpace=wrap;html=1;strokeColor=#36393d;strokeWidth=1;fillColor=#ffcc99;" parent="1" vertex="1">
          <mxGeometry x="-880" y="855" width="120" height="60" as="geometry" />
        </mxCell>
        <mxCell id="aP0xkrd6JBsTT6EtkUmq-51" value="&lt;h3 style=&quot;font-size: 18px&quot;&gt;&lt;font face=&quot;Verdana&quot;&gt;结果合并&lt;/font&gt;&lt;/h3&gt;" style="rounded=1;whiteSpace=wrap;html=1;strokeColor=#36393d;strokeWidth=1;fillColor=#ffcc99;" parent="1" vertex="1">
          <mxGeometry x="-1080" y="855" width="120" height="60" as="geometry" />
        </mxCell>
        <mxCell id="JoDoQnj6M1mZgMJEA4F1-5" value="&lt;h3&gt;&lt;font face=&quot;Verdana&quot;&gt;&lt;span style=&quot;font-size: 18px&quot;&gt;缓冲队列&lt;/span&gt;&lt;/font&gt;&lt;/h3&gt;" style="swimlane;html=1;childLayout=stackLayout;resizeParent=1;resizeParentMax=0;horizontal=1;startSize=20;horizontalStack=0;fillColor=#b0e3e6;strokeColor=#0e8088;rounded=1;" parent="1" vertex="1">
          <mxGeometry x="-1040" y="240" width="200" height="60" as="geometry" />
        </mxCell>
        <mxCell id="JoDoQnj6M1mZgMJEA4F1-6" value="data" style="swimlane;html=1;startSize=20;horizontal=0;" parent="JoDoQnj6M1mZgMJEA4F1-5" vertex="1">
          <mxGeometry y="20" width="200" height="40" as="geometry" />
        </mxCell>
        <mxCell id="JoDoQnj6M1mZgMJEA4F1-9" value="&lt;font style=&quot;font-size: 16px&quot;&gt;&lt;b&gt;data&lt;/b&gt;&lt;/font&gt;" style="text;html=1;align=center;verticalAlign=middle;resizable=0;points=[];autosize=1;" parent="JoDoQnj6M1mZgMJEA4F1-6" vertex="1">
          <mxGeometry x="75" y="10" width="50" height="20" as="geometry" />
        </mxCell>
        <mxCell id="JoDoQnj6M1mZgMJEA4F1-18" value="预处理组件" style="swimlane;rounded=1;fontSize=18;fontFamily=Verdana;fillColor=#cdeb8b;strokeColor=#36393d;" parent="1" vertex="1">
          <mxGeometry x="-1320" y="120" width="160" height="306" as="geometry" />
        </mxCell>
        <mxCell id="JoDoQnj6M1mZgMJEA4F1-32" value="分发组件" style="swimlane;rounded=1;fontFamily=Verdana;fontSize=18;fillColor=#ffff88;strokeColor=#36393d;startSize=23;" parent="1" vertex="1">
          <mxGeometry x="-720" y="120.5" width="160" height="209.5" as="geometry" />
        </mxCell>
        <mxCell id="JoDoQnj6M1mZgMJEA4F1-31" value="&lt;h3&gt;&lt;font style=&quot;font-size: 18px&quot;&gt;队列探测&lt;/font&gt;&lt;/h3&gt;" style="rounded=1;whiteSpace=wrap;html=1;fontFamily=Verdana;fontSize=16;fillColor=#ffff88;strokeColor=#36393d;dashed=1;" parent="JoDoQnj6M1mZgMJEA4F1-32" vertex="1">
          <mxGeometry x="20" y="39.5" width="120" height="60" as="geometry" />
        </mxCell>
        <mxCell id="JoDoQnj6M1mZgMJEA4F1-36" value="&lt;h3&gt;&lt;font style=&quot;font-size: 18px&quot; face=&quot;Verdana&quot;&gt;图片队列&lt;/font&gt;&lt;/h3&gt;" style="swimlane;html=1;childLayout=stackLayout;resizeParent=1;resizeParentMax=0;startSize=20;horizontal=0;horizontalStack=1;fillColor=#e1d5e7;strokeColor=#9673a6;rounded=1;arcSize=20;" parent="1" vertex="1">
          <mxGeometry x="-430" y="161" width="140" height="240" as="geometry" />
        </mxCell>
        <mxCell id="JoDoQnj6M1mZgMJEA4F1-37" value="face" style="swimlane;html=1;startSize=20;" parent="JoDoQnj6M1mZgMJEA4F1-36" vertex="1">
          <mxGeometry x="20" width="40" height="240" as="geometry" />
        </mxCell>
        <mxCell id="JoDoQnj6M1mZgMJEA4F1-38" value="face-input" style="text;html=1;align=center;verticalAlign=middle;resizable=0;points=[];autosize=1;fontColor=#1D3557;horizontal=0;" parent="JoDoQnj6M1mZgMJEA4F1-37" vertex="1">
          <mxGeometry x="5" y="95" width="30" height="60" as="geometry" />
        </mxCell>
        <mxCell id="JoDoQnj6M1mZgMJEA4F1-39" value="porn" style="swimlane;html=1;startSize=20;" parent="JoDoQnj6M1mZgMJEA4F1-36" vertex="1">
          <mxGeometry x="60" width="40" height="240" as="geometry" />
        </mxCell>
        <mxCell id="JoDoQnj6M1mZgMJEA4F1-40" value="porn-input" style="text;html=1;align=center;verticalAlign=middle;resizable=0;points=[];autosize=1;fontColor=#1D3557;horizontal=0;" parent="JoDoQnj6M1mZgMJEA4F1-39" vertex="1">
          <mxGeometry x="5" y="95" width="30" height="60" as="geometry" />
        </mxCell>
        <mxCell id="JoDoQnj6M1mZgMJEA4F1-41" value="ocr" style="swimlane;html=1;startSize=20;" parent="JoDoQnj6M1mZgMJEA4F1-36" vertex="1">
          <mxGeometry x="100" width="40" height="240" as="geometry" />
        </mxCell>
        <mxCell id="JoDoQnj6M1mZgMJEA4F1-42" value="ocr-input" style="text;html=1;align=center;verticalAlign=middle;resizable=0;points=[];autosize=1;fontColor=#1D3557;horizontal=0;" parent="JoDoQnj6M1mZgMJEA4F1-41" vertex="1">
          <mxGeometry x="5" y="100" width="30" height="50" as="geometry" />
        </mxCell>
        <mxCell id="aP0xkrd6JBsTT6EtkUmq-20" value="&lt;h3&gt;&lt;font style=&quot;font-size: 18px&quot; face=&quot;Verdana&quot;&gt;结果队列&lt;/font&gt;&lt;/h3&gt;" style="swimlane;html=1;childLayout=stackLayout;resizeParent=1;resizeParentMax=0;startSize=20;horizontal=0;horizontalStack=1;fillColor=#e1d5e7;strokeColor=#9673a6;rounded=1;" parent="1" vertex="1">
          <mxGeometry x="-430" y="760" width="140" height="240" as="geometry" />
        </mxCell>
        <mxCell id="aP0xkrd6JBsTT6EtkUmq-21" value="face" style="swimlane;html=1;startSize=20;" parent="aP0xkrd6JBsTT6EtkUmq-20" vertex="1">
          <mxGeometry x="20" width="40" height="240" as="geometry" />
        </mxCell>
        <mxCell id="aP0xkrd6JBsTT6EtkUmq-24" value="face-output" style="text;html=1;align=center;verticalAlign=middle;resizable=0;points=[];autosize=1;fontColor=#1D3557;horizontal=0;" parent="aP0xkrd6JBsTT6EtkUmq-21" vertex="1">
          <mxGeometry x="5" y="90" width="30" height="70" as="geometry" />
        </mxCell>
        <mxCell id="aP0xkrd6JBsTT6EtkUmq-22" value="porn" style="swimlane;html=1;startSize=20;" parent="aP0xkrd6JBsTT6EtkUmq-20" vertex="1">
          <mxGeometry x="60" width="40" height="240" as="geometry" />
        </mxCell>
        <mxCell id="aP0xkrd6JBsTT6EtkUmq-25" value="porn-output" style="text;html=1;align=center;verticalAlign=middle;resizable=0;points=[];autosize=1;fontColor=#1D3557;horizontal=0;" parent="aP0xkrd6JBsTT6EtkUmq-22" vertex="1">
          <mxGeometry x="5" y="90" width="30" height="70" as="geometry" />
        </mxCell>
        <mxCell id="aP0xkrd6JBsTT6EtkUmq-23" value="ocr" style="swimlane;html=1;startSize=20;" parent="aP0xkrd6JBsTT6EtkUmq-20" vertex="1">
          <mxGeometry x="100" width="40" height="240" as="geometry" />
        </mxCell>
        <mxCell id="aP0xkrd6JBsTT6EtkUmq-26" value="ocr-output" style="text;html=1;align=center;verticalAlign=middle;resizable=0;points=[];autosize=1;fontColor=#1D3557;horizontal=0;" parent="aP0xkrd6JBsTT6EtkUmq-23" vertex="1">
          <mxGeometry x="5" y="95" width="30" height="60" as="geometry" />
        </mxCell>
        <mxCell id="YrBBLmiHEUmSjlM092Gt-11" style="edgeStyle=orthogonalEdgeStyle;rounded=1;orthogonalLoop=1;jettySize=auto;html=1;exitX=1;exitY=0.5;exitDx=0;exitDy=0;strokeColor=#457B9D;strokeWidth=2;" parent="1" source="YrBBLmiHEUmSjlM092Gt-40" edge="1">
          <mxGeometry relative="1" as="geometry">
            <mxPoint x="-700" y="280" as="targetPoint" />
          </mxGeometry>
        </mxCell>
        <mxCell id="YrBBLmiHEUmSjlM092Gt-17" style="edgeStyle=orthogonalEdgeStyle;rounded=1;orthogonalLoop=1;jettySize=auto;html=1;exitX=0.5;exitY=1;exitDx=0;exitDy=0;entryX=0.5;entryY=0;entryDx=0;entryDy=0;strokeColor=#457B9D;strokeWidth=2;dashed=1;" parent="1" source="JoDoQnj6M1mZgMJEA4F1-31" target="0IOBR0UWIJ8B12urthg3-27" edge="1">
          <mxGeometry relative="1" as="geometry" />
        </mxCell>
        <mxCell id="YrBBLmiHEUmSjlM092Gt-19" style="edgeStyle=orthogonalEdgeStyle;rounded=1;orthogonalLoop=1;jettySize=auto;html=1;exitX=0.5;exitY=1;exitDx=0;exitDy=0;entryX=0.5;entryY=0;entryDx=0;entryDy=0;strokeColor=#457B9D;strokeWidth=2;" parent="1" source="YrBBLmiHEUmSjlM092Gt-47" target="0IOBR0UWIJ8B12urthg3-49" edge="1">
          <mxGeometry relative="1" as="geometry" />
        </mxCell>
        <mxCell id="YrBBLmiHEUmSjlM092Gt-20" style="edgeStyle=orthogonalEdgeStyle;rounded=1;orthogonalLoop=1;jettySize=auto;html=1;exitX=0.5;exitY=1;exitDx=0;exitDy=0;entryX=0.5;entryY=0;entryDx=0;entryDy=0;strokeColor=#457B9D;strokeWidth=2;" parent="1" source="JoDoQnj6M1mZgMJEA4F1-37" target="0IOBR0UWIJ8B12urthg3-48" edge="1">
          <mxGeometry relative="1" as="geometry" />
        </mxCell>
        <mxCell id="YrBBLmiHEUmSjlM092Gt-21" style="edgeStyle=orthogonalEdgeStyle;rounded=1;orthogonalLoop=1;jettySize=auto;html=1;exitX=0.5;exitY=1;exitDx=0;exitDy=0;strokeColor=#457B9D;strokeWidth=2;" parent="1" source="JoDoQnj6M1mZgMJEA4F1-41" target="0IOBR0UWIJ8B12urthg3-50" edge="1">
          <mxGeometry relative="1" as="geometry" />
        </mxCell>
        <mxCell id="YrBBLmiHEUmSjlM092Gt-22" style="edgeStyle=orthogonalEdgeStyle;rounded=1;orthogonalLoop=1;jettySize=auto;html=1;exitX=0.5;exitY=1;exitDx=0;exitDy=0;entryX=0.5;entryY=0;entryDx=0;entryDy=0;strokeColor=#457B9D;strokeWidth=2;" parent="1" source="0IOBR0UWIJ8B12urthg3-48" target="aP0xkrd6JBsTT6EtkUmq-21" edge="1">
          <mxGeometry relative="1" as="geometry" />
        </mxCell>
        <mxCell id="YrBBLmiHEUmSjlM092Gt-24" style="edgeStyle=orthogonalEdgeStyle;rounded=1;orthogonalLoop=1;jettySize=auto;html=1;exitX=0.5;exitY=1;exitDx=0;exitDy=0;entryX=0.5;entryY=0;entryDx=0;entryDy=0;strokeColor=#457B9D;strokeWidth=2;" parent="1" source="0IOBR0UWIJ8B12urthg3-50" target="aP0xkrd6JBsTT6EtkUmq-23" edge="1">
          <mxGeometry relative="1" as="geometry" />
        </mxCell>
        <mxCell id="YrBBLmiHEUmSjlM092Gt-26" style="edgeStyle=orthogonalEdgeStyle;rounded=1;orthogonalLoop=1;jettySize=auto;html=1;entryX=1;entryY=0.5;entryDx=0;entryDy=0;strokeColor=#457B9D;strokeWidth=2;" parent="1" source="YrBBLmiHEUmSjlM092Gt-55" target="aP0xkrd6JBsTT6EtkUmq-43" edge="1">
          <mxGeometry relative="1" as="geometry">
            <mxPoint x="-430" y="885" as="sourcePoint" />
          </mxGeometry>
        </mxCell>
        <mxCell id="YrBBLmiHEUmSjlM092Gt-32" value="" style="html=1;shadow=0;dashed=0;align=center;verticalAlign=middle;shape=mxgraph.arrows2.arrow;dy=0.67;dx=20;notch=0;rounded=0;sketch=0;strokeColor=#457B9D;fillColor=#A8DADC;fontColor=#1D3557;flipH=1;" parent="1" vertex="1">
          <mxGeometry x="-1640" y="875" width="560" height="20" as="geometry" />
        </mxCell>
        <mxCell id="YrBBLmiHEUmSjlM092Gt-34" value="合并组件" style="swimlane;dashed=1;fillColor=#ffcc99;strokeColor=#36393d;fontSize=18;fontFamily=Verdana;rounded=1;" parent="1" vertex="1">
          <mxGeometry x="-1100" y="810" width="360" height="120" as="geometry" />
        </mxCell>
        <mxCell id="YrBBLmiHEUmSjlM092Gt-35" value="&lt;font style=&quot;font-size: 16px&quot;&gt;&lt;b&gt;①&lt;/b&gt;&lt;/font&gt;" style="text;html=1;strokeColor=none;fillColor=none;align=center;verticalAlign=middle;whiteSpace=wrap;rounded=0;dashed=1;fontFamily=Verdana;fontSize=18;" parent="1" vertex="1">
          <mxGeometry x="-1380" y="270" width="40" height="20" as="geometry" />
        </mxCell>
        <mxCell id="YrBBLmiHEUmSjlM092Gt-36" style="edgeStyle=orthogonalEdgeStyle;rounded=1;orthogonalLoop=1;jettySize=auto;html=1;exitX=1;exitY=0.5;exitDx=0;exitDy=0;entryX=0;entryY=0.5;entryDx=0;entryDy=0;strokeWidth=2;strokeColor=#457B9D;" parent="1" source="0IOBR0UWIJ8B12urthg3-6" target="YrBBLmiHEUmSjlM092Gt-35" edge="1">
          <mxGeometry relative="1" as="geometry">
            <mxPoint x="-1440" y="280" as="sourcePoint" />
            <mxPoint x="-1300" y="280" as="targetPoint" />
          </mxGeometry>
        </mxCell>
        <mxCell id="YrBBLmiHEUmSjlM092Gt-38" value="&lt;font style=&quot;font-size: 16px&quot;&gt;&lt;b&gt;②&lt;/b&gt;&lt;/font&gt;" style="text;html=1;strokeColor=none;fillColor=none;align=center;verticalAlign=middle;whiteSpace=wrap;rounded=0;dashed=1;fontFamily=Verdana;fontSize=18;" parent="1" vertex="1">
          <mxGeometry x="-1140" y="270" width="40" height="20" as="geometry" />
        </mxCell>
        <mxCell id="YrBBLmiHEUmSjlM092Gt-39" style="edgeStyle=orthogonalEdgeStyle;rounded=1;orthogonalLoop=1;jettySize=auto;html=1;exitX=1;exitY=0.5;exitDx=0;exitDy=0;entryX=0;entryY=0.5;entryDx=0;entryDy=0;strokeColor=#457B9D;strokeWidth=2;" parent="1" source="0IOBR0UWIJ8B12urthg3-19" target="YrBBLmiHEUmSjlM092Gt-38" edge="1">
          <mxGeometry relative="1" as="geometry">
            <mxPoint x="-1180" y="280" as="sourcePoint" />
            <mxPoint x="-1040" y="280" as="targetPoint" />
          </mxGeometry>
        </mxCell>
        <mxCell id="YrBBLmiHEUmSjlM092Gt-40" value="③" style="text;html=1;strokeColor=none;fillColor=none;align=center;verticalAlign=middle;whiteSpace=wrap;rounded=0;dashed=1;fontFamily=Verdana;fontSize=16;fontStyle=1" parent="1" vertex="1">
          <mxGeometry x="-800" y="270" width="40" height="20" as="geometry" />
        </mxCell>
        <mxCell id="YrBBLmiHEUmSjlM092Gt-41" style="edgeStyle=orthogonalEdgeStyle;rounded=1;orthogonalLoop=1;jettySize=auto;html=1;exitX=1;exitY=0.5;exitDx=0;exitDy=0;strokeColor=#457B9D;strokeWidth=2;" parent="1" source="JoDoQnj6M1mZgMJEA4F1-6" target="YrBBLmiHEUmSjlM092Gt-40" edge="1">
          <mxGeometry relative="1" as="geometry">
            <mxPoint x="-700" y="280" as="targetPoint" />
            <mxPoint x="-840" y="280" as="sourcePoint" />
          </mxGeometry>
        </mxCell>
        <mxCell id="YrBBLmiHEUmSjlM092Gt-42" value="④-A" style="text;html=1;strokeColor=none;fillColor=none;align=center;verticalAlign=middle;whiteSpace=wrap;rounded=0;dashed=1;fontFamily=Verdana;fontSize=16;fontStyle=1" parent="1" vertex="1">
          <mxGeometry x="-940" y="406" width="40" height="20" as="geometry" />
        </mxCell>
        <mxCell id="YrBBLmiHEUmSjlM092Gt-43" style="edgeStyle=orthogonalEdgeStyle;rounded=1;orthogonalLoop=1;jettySize=auto;html=1;exitX=0.5;exitY=1;exitDx=0;exitDy=0;entryX=0.5;entryY=0;entryDx=0;entryDy=0;strokeColor=#457B9D;strokeWidth=2;" parent="1" source="0IOBR0UWIJ8B12urthg3-27" target="YrBBLmiHEUmSjlM092Gt-42" edge="1">
          <mxGeometry relative="1" as="geometry">
            <mxPoint x="-640" y="311" as="sourcePoint" />
            <mxPoint x="-920" y="490" as="targetPoint" />
          </mxGeometry>
        </mxCell>
        <mxCell id="YrBBLmiHEUmSjlM092Gt-45" value="④-B" style="text;html=1;strokeColor=none;fillColor=none;align=center;verticalAlign=middle;whiteSpace=wrap;rounded=0;dashed=1;fontFamily=Verdana;fontSize=16;fontStyle=1" parent="1" vertex="1">
          <mxGeometry x="-540" y="271" width="40" height="20" as="geometry" />
        </mxCell>
        <mxCell id="YrBBLmiHEUmSjlM092Gt-46" style="edgeStyle=orthogonalEdgeStyle;rounded=1;orthogonalLoop=1;jettySize=auto;html=1;exitX=1;exitY=0.5;exitDx=0;exitDy=0;entryX=0;entryY=0.5;entryDx=0;entryDy=0;strokeColor=#457B9D;strokeWidth=2;" parent="1" source="0IOBR0UWIJ8B12urthg3-27" target="YrBBLmiHEUmSjlM092Gt-45" edge="1">
          <mxGeometry relative="1" as="geometry">
            <mxPoint x="-580" y="281" as="sourcePoint" />
            <mxPoint x="-430" y="281" as="targetPoint" />
          </mxGeometry>
        </mxCell>
        <mxCell id="YrBBLmiHEUmSjlM092Gt-47" value="⑤" style="text;html=1;strokeColor=none;fillColor=none;align=center;verticalAlign=middle;whiteSpace=wrap;rounded=0;dashed=1;fontFamily=Verdana;fontSize=16;fontStyle=1" parent="1" vertex="1">
          <mxGeometry x="-370" y="460" width="40" height="20" as="geometry" />
        </mxCell>
        <mxCell id="YrBBLmiHEUmSjlM092Gt-48" style="edgeStyle=orthogonalEdgeStyle;rounded=1;orthogonalLoop=1;jettySize=auto;html=1;exitX=0.5;exitY=1;exitDx=0;exitDy=0;entryX=0.5;entryY=0;entryDx=0;entryDy=0;strokeColor=#457B9D;strokeWidth=2;" parent="1" source="JoDoQnj6M1mZgMJEA4F1-39" target="YrBBLmiHEUmSjlM092Gt-47" edge="1">
          <mxGeometry relative="1" as="geometry">
            <mxPoint x="-350" y="401" as="sourcePoint" />
            <mxPoint x="-350" y="565" as="targetPoint" />
          </mxGeometry>
        </mxCell>
        <mxCell id="YrBBLmiHEUmSjlM092Gt-54" style="edgeStyle=orthogonalEdgeStyle;rounded=1;orthogonalLoop=1;jettySize=auto;html=1;exitX=0.5;exitY=1;exitDx=0;exitDy=0;strokeColor=#457B9D;strokeWidth=2;fontFamily=Verdana;fontSize=16;" parent="1" source="YrBBLmiHEUmSjlM092Gt-52" edge="1">
          <mxGeometry relative="1" as="geometry">
            <mxPoint x="-350.29411764705856" y="759.9999999999998" as="targetPoint" />
          </mxGeometry>
        </mxCell>
        <mxCell id="YrBBLmiHEUmSjlM092Gt-52" value="⑥" style="text;html=1;strokeColor=none;fillColor=none;align=center;verticalAlign=middle;whiteSpace=wrap;rounded=0;dashed=1;fontFamily=Verdana;fontSize=16;fontStyle=1" parent="1" vertex="1">
          <mxGeometry x="-370" y="680" width="40" height="20" as="geometry" />
        </mxCell>
        <mxCell id="YrBBLmiHEUmSjlM092Gt-53" style="edgeStyle=orthogonalEdgeStyle;rounded=1;orthogonalLoop=1;jettySize=auto;html=1;exitX=0.5;exitY=1;exitDx=0;exitDy=0;entryX=0.5;entryY=0;entryDx=0;entryDy=0;strokeColor=#457B9D;strokeWidth=2;fontFamily=Verdana;fontSize=16;" parent="1" source="0IOBR0UWIJ8B12urthg3-49" target="YrBBLmiHEUmSjlM092Gt-52" edge="1">
          <mxGeometry relative="1" as="geometry" />
        </mxCell>
        <mxCell id="YrBBLmiHEUmSjlM092Gt-55" value="⑦" style="text;html=1;strokeColor=none;fillColor=none;align=center;verticalAlign=middle;whiteSpace=wrap;rounded=0;dashed=1;fontFamily=Verdana;fontSize=16;fontStyle=1" parent="1" vertex="1">
          <mxGeometry x="-630" y="875" width="40" height="20" as="geometry" />
        </mxCell>
        <mxCell id="YrBBLmiHEUmSjlM092Gt-56" style="edgeStyle=orthogonalEdgeStyle;rounded=1;orthogonalLoop=1;jettySize=auto;html=1;entryX=1;entryY=0.5;entryDx=0;entryDy=0;strokeColor=#457B9D;strokeWidth=2;" parent="1" target="YrBBLmiHEUmSjlM092Gt-55" edge="1">
          <mxGeometry relative="1" as="geometry">
            <mxPoint x="-430" y="884.9999999999998" as="sourcePoint" />
            <mxPoint x="-760" y="884.9999999999998" as="targetPoint" />
          </mxGeometry>
        </mxCell>
        <mxCell id="YrBBLmiHEUmSjlM092Gt-57" value="⑧" style="text;html=1;strokeColor=none;fillColor=none;align=center;verticalAlign=middle;whiteSpace=wrap;rounded=0;dashed=1;fontFamily=Verdana;fontSize=16;fontStyle=1" parent="1" vertex="1">
          <mxGeometry x="-850" y="750" width="40" height="20" as="geometry" />
        </mxCell>
        <mxCell id="YrBBLmiHEUmSjlM092Gt-58" style="edgeStyle=orthogonalEdgeStyle;rounded=1;orthogonalLoop=1;jettySize=auto;html=1;exitX=0.5;exitY=0;exitDx=0;exitDy=0;entryX=0.75;entryY=1;entryDx=0;entryDy=0;strokeColor=#457B9D;strokeWidth=2;" parent="1" source="aP0xkrd6JBsTT6EtkUmq-43" target="YrBBLmiHEUmSjlM092Gt-57" edge="1">
          <mxGeometry relative="1" as="geometry">
            <mxPoint x="-820" y="855" as="sourcePoint" />
            <mxPoint x="-830" y="670" as="targetPoint" />
          </mxGeometry>
        </mxCell>
        <mxCell id="YrBBLmiHEUmSjlM092Gt-64" style="edgeStyle=orthogonalEdgeStyle;rounded=1;orthogonalLoop=1;jettySize=auto;html=1;exitX=0.25;exitY=1;exitDx=0;exitDy=0;entryX=0.5;entryY=0;entryDx=0;entryDy=0;strokeColor=#457B9D;strokeWidth=2;fontFamily=Verdana;fontSize=16;" parent="1" source="YrBBLmiHEUmSjlM092Gt-62" target="aP0xkrd6JBsTT6EtkUmq-51" edge="1">
          <mxGeometry relative="1" as="geometry" />
        </mxCell>
        <mxCell id="YrBBLmiHEUmSjlM092Gt-62" value="⑨" style="text;html=1;strokeColor=none;fillColor=none;align=center;verticalAlign=middle;whiteSpace=wrap;rounded=0;dashed=1;fontFamily=Verdana;fontSize=16;fontStyle=1" parent="1" vertex="1">
          <mxGeometry x="-1030" y="750" width="40" height="20" as="geometry" />
        </mxCell>
      </root>
    </mxGraphModel>
  </diagram>
</mxfile>
